<svg width="183" height="64" viewBox="0 0 183 64" fill="none" xmlns="http://www.w3.org/2000/svg">
<path d="M177.298 9.44287C173.549 9.44287 170.403 11.3713 168.895 13.7284H168.378L166.051 9.57144H163.638V36.6987H168.981V23.5422C168.981 18.3996 172.213 15.3569 177.729 15.3569H178.979V9.57144C178.418 9.48573 177.858 9.44287 177.298 9.44287Z" fill="white"/>
<path d="M152.908 13.7278H152.391C150.408 11.0708 146.616 9.05664 142.91 9.05664C135.412 9.05664 128.948 15.2278 128.948 23.1559C128.948 30.827 135.154 37.2553 142.91 37.2553C146.875 37.2553 150.408 35.2839 152.261 32.1984V36.6981H157.605V9.5709H155.192L152.908 13.7278ZM143.255 32.0698C138.256 32.0698 134.292 28.0843 134.292 23.1559C134.292 18.2705 138.256 14.2421 143.255 14.2421C148.297 14.2421 152.261 18.2705 152.261 23.1559C152.261 28.0843 148.297 32.0698 143.255 32.0698Z" fill="white"/>
<path d="M110.978 9.05664C103.135 9.05664 97.1025 15.3992 97.1025 23.1131C97.1025 31.0841 103.265 37.2553 111.452 37.2553C116.193 37.2553 120.2 35.2411 123.389 31.2127L119.166 27.9986C117.399 30.3985 114.555 32.0269 111.452 32.0269C107.315 32.0269 103.48 29.1128 102.748 25.0844H124.596V23.1131C124.553 15.0992 118.692 9.05664 110.978 9.05664ZM102.791 20.4561C103.696 16.4706 107.272 14.1135 111.021 14.1135C114.857 14.1135 117.916 16.5134 118.735 20.4561H102.791Z" fill="white"/>
<path d="M71.8076 31.9841C66.7227 31.9841 62.8874 27.9129 62.8874 23.1559C62.8874 18.2705 66.6796 14.3278 71.8076 14.3278C74.2639 14.3278 76.16 15.3563 77.7113 16.7277L81.762 13.085C79.3488 10.6423 75.8152 9.05664 71.8507 9.05664C64.1371 9.05664 57.5439 15.3992 57.5439 23.1559C57.5439 30.9984 63.9647 37.2553 71.8507 37.2553C77.108 37.2553 81.1156 34.8554 83.615 30.9127L79.1333 28.1271C77.4096 30.3985 75.0395 31.9841 71.8076 31.9841Z" fill="white"/>
<path d="M86.9756 8.2855V36.6984H92.3191V4H91.6727L86.9756 8.2855Z" fill="white"/>
<path d="M22.8103 4.04297L19.6215 19.0422L16.2172 21.8278L13.0283 36.6556H18.6304L25.6114 4.04297H22.8103Z" fill="white"/>
<path d="M31.8173 4.04297L30.5245 9.99982L27.1633 12.7854L21.9922 36.6556H24.7932L26.086 30.6988L29.4903 27.9132L34.6183 4.04297H31.8173Z" fill="white"/>
<path d="M13.8476 4.04248L8.67646 28.0842L5.27215 30.9126L4.02246 36.6552H9.6245L16.6486 4.04248H13.8476Z" fill="white"/>
<path d="M46.9859 4.04297L40.0049 36.6556H42.7628L47.9339 12.614L51.3382 9.8284L52.5879 4.04297H46.9859Z" fill="white"/>
<path d="M43.5811 4.04297H37.9791L30.998 36.6556H33.7991L37.031 21.6564L40.4353 18.8708L43.5811 4.04297Z" fill="white"/>
<path d="M69.1784 54.8689C68.3597 55.8974 67.0669 56.4117 65.4725 56.4117C62.6284 56.4117 60.6892 54.4403 60.6892 51.4833C60.6892 48.5692 62.6284 46.5979 65.4725 46.5979C67.3685 46.5979 68.4027 47.4978 68.9629 48.2264L69.006 48.3121H69.5662L69.3508 45.4836L69.2646 45.4408C68.3166 44.7122 66.8514 44.2837 65.3432 44.2837C61.1201 44.2837 58.0605 47.3264 58.0605 51.5262C58.0605 55.726 61.1201 58.8116 65.3432 58.8116C66.9807 58.8116 68.532 58.3401 69.4801 57.6116L69.5232 57.5688L69.7817 54.8689H69.2215H69.1784Z" fill="white"/>
<path d="M78.3137 44.2407C74.0475 44.2407 71.1172 47.1977 71.1172 51.4832C71.1172 55.683 74.1337 58.7686 78.3137 58.7686C82.4936 58.7686 85.5532 55.7259 85.5532 51.4832C85.5532 47.2406 82.5798 44.2407 78.3137 44.2407ZM82.9677 51.4832C82.9677 54.4402 81.1147 56.4115 78.3567 56.4115C75.5988 56.4115 73.7458 54.4402 73.7458 51.4832C73.7458 48.5691 75.5988 46.5977 78.3567 46.5977C81.1147 46.5977 82.9677 48.5262 82.9677 51.4832Z" fill="white"/>
<path d="M95.8526 44.3693C95.6803 44.2836 95.4217 44.2407 95.077 44.2407C93.224 44.2407 91.5865 45.1835 90.6384 46.7692L90.0351 44.4121H88.3545V58.5543H90.9401V50.8833C90.9401 48.3977 92.4914 46.7263 94.7753 46.7263C95.2062 46.7263 95.6372 46.7692 95.9388 46.8549L96.1974 46.9406L95.9819 44.4121L95.8526 44.3693Z" fill="white"/>
<path d="M105.98 44.3693C105.807 44.2836 105.549 44.2407 105.204 44.2407C103.351 44.2407 101.713 45.1835 100.765 46.7692L100.162 44.4121H98.4814V58.5543H101.067V50.8833C101.067 48.3977 102.618 46.7263 104.902 46.7263C105.333 46.7263 105.764 46.7692 106.066 46.8549L106.324 46.9406L106.109 44.4121L105.98 44.3693Z" fill="white"/>
<path d="M113.866 44.2407C109.901 44.2407 106.928 47.3691 106.928 51.5261C106.928 55.8544 109.944 58.7686 114.426 58.7686C116.365 58.7686 118.347 58.1686 119.468 57.2686L119.511 57.2258L119.942 54.6116H119.381L119.338 54.6545C118.218 55.7687 116.408 56.4115 114.555 56.4115C111.711 56.4115 109.944 54.9973 109.556 52.426H120.33V52.2546C120.373 51.8689 120.373 51.5689 120.373 51.2261C120.373 47.0692 117.744 44.2407 113.866 44.2407ZM113.823 46.5977C116.106 46.5977 117.658 48.0548 117.83 50.3261H109.599C109.987 48.0548 111.668 46.5977 113.823 46.5977Z" fill="white"/>
<path d="M129.681 56.1547C129.422 56.369 128.948 56.4975 128.388 56.4975C126.88 56.4975 126.147 55.7261 126.147 54.0977V46.6409H130.112V44.4553H126.191V41.584L121.062 46.1266V46.6409H123.605V54.3119C123.605 57.0975 125.286 58.7689 128.043 58.7689C128.69 58.7689 129.509 58.6403 129.896 58.3832L129.983 58.3403L130.241 56.1547H129.681Z" fill="white"/>
<path d="M138.644 44.2407C134.378 44.2407 131.447 47.1977 131.447 51.4832C131.447 55.683 134.464 58.7686 138.644 58.7686C142.824 58.7686 145.883 55.7259 145.883 51.4832C145.883 47.2406 142.91 44.2407 138.644 44.2407ZM143.255 51.4832C143.255 54.4402 141.402 56.4115 138.644 56.4115C135.886 56.4115 134.033 54.4402 134.033 51.4832C134.033 48.5691 135.886 46.5977 138.644 46.5977C141.445 46.5977 143.255 48.5262 143.255 51.4832Z" fill="white"/>
<path d="M156.14 44.3693C155.924 44.2836 155.709 44.2407 155.364 44.2407C153.511 44.2407 151.874 45.1835 150.926 46.7692L150.322 44.4121H148.642V58.5543H151.227V50.8833C151.227 48.3977 152.779 46.7263 155.062 46.7263C155.493 46.7263 155.924 46.7692 156.226 46.8549L156.484 46.9406L156.269 44.4121L156.14 44.3693Z" fill="white"/>
<path d="M163.034 44.2407C161.224 44.2407 159.457 44.7978 158.595 45.355L158.509 45.3978L158.164 47.8834H158.725L158.768 47.8405C159.888 46.9834 161.181 46.5978 162.861 46.5978C165.188 46.5978 166.438 47.6263 166.438 49.5547V50.2833C165.49 50.069 164.585 49.9833 163.766 49.9833C159.673 49.9833 157.389 51.6118 157.389 54.5688C157.389 57.0544 159.371 58.8114 162.215 58.8114C164.111 58.8114 165.792 57.9115 166.74 56.3258L167.343 58.64H168.981V49.4262C168.981 46.1692 166.74 44.2407 163.034 44.2407ZM163.723 52.1261C164.585 52.1261 165.49 52.2546 166.395 52.4689C166.395 54.9116 164.887 56.4544 162.646 56.4544C160.965 56.4544 159.888 55.6402 159.888 54.3974C159.888 52.8974 161.181 52.1261 163.723 52.1261Z" fill="white"/>
</svg>
